# xmcd
#
# Track frame offsets:
#	150
#	16859
#	33913
#	52518
#	68062
#	89367
#	105545
#	121251
#	140823
#	157638
#	174491
#	189206
#	201765
#	218967
#
# Disc length: 3182 seconds
#
# Revision: 0
# Processed by: cddbd v1.5.2PL0 Copyright (c) Steve Scherf et al.
# Submitted via: EZCDAudioConverter 8.0.2.1
#
DISCID=ab0c6c0e
DTITLE=Vayna - Naked Heart
DYEAR=2003
DGENRE=
TTITLE0=When Your Ship Comes In
TTITLE1=I Know
TTITLE2=Whatch Where You Fall
TTITLE3=The Millenium Bug
TTITLE4=My First Guitar
TTITLE5=One Love Lullaby
TTITLE6=Hush It Happens
TTITLE7=Keep My Heart
TTITLE8=Silly Sally
TTITLE9=Eyes Open Wide
TTITLE10=Sweet Justice
TTITLE11=Way To Believe
TTITLE12=Love Is like a Pillow
TTITLE13=Everythings Gonna Change
EXTD=
EXTT0=
EXTT1=
EXTT2=
EXTT3=
EXTT4=
EXTT5=
EXTT6=
EXTT7=
EXTT8=
EXTT9=
EXTT10=
EXTT11=
EXTT12=
EXTT13=
PLAYORDER=
